P3
4 4
255
76 76 76
149 149 149
29 29 29
225 225 225
178 178 178
222 222 222
255 255 255
64 64 64
151 151 151
45 45 45
6 6 6
89 89 89
192 192 192
32 32 32
96 96 96
224 224 224
