P3
4 4
255
0 0 0
0 0 0
0 0 0
0 0 0
0 0 0
255 255 255
98 98 98
0 0 0
0 0 0
255 255 255
72 72 72
0 0 0
0 0 0
0 0 0
0 0 0
0 0 0
