P3
4 4
255
255 0 0   0 255 0   0 0 255   255 255 0
0 255 255 255 0 255 128 128 128 64 64 64
255 128 0 0 128 255 128 255 0 0 128 128
192 192 192 32 32 32 96 96 96 224 224 224
